<?xml version="1.0" encoding="UTF-8"?>
<svg version="1.1" xmlns="http://www.w3.org/2000/svg" width="2083" height="2083">
<path d="M0 0 C687.39 0 1374.78 0 2083 0 C2083 687.39 2083 1374.78 2083 2083 C1395.61 2083 708.22 2083 0 2083 C0 1395.61 0 708.22 0 0 Z " fill="#000000" transform="translate(0,0)"/>
<path d="M0 0 C13.92798914 14.3600618 25.00396145 31.58015819 33.42773438 49.66162109 C34.37470203 51.68686275 35.35071236 53.69633994 36.328125 55.70703125 C59.07606741 103.55905315 65.32290477 159.23178528 66.375 211.6875 C66.40787109 213.08137939 66.40787109 213.08137939 66.44140625 214.50341797 C67.98323382 288.31841307 55.91507603 361.99440114 39.375 433.6875 C40.52887207 434.02406616 40.52887207 434.02406616 41.70605469 434.36743164 C113.01314687 455.28952862 183.77409726 481.75582524 247.375 520.6875 C249.18061553 521.77405934 250.98660531 522.859997 252.79296875 523.9453125 C276.6601088 538.39241311 299.43728522 554.77324151 320.0625 573.59375 C322.03155591 575.37654386 324.03390202 577.09868447 326.0625 578.8125 C336.44416726 587.88590838 345.87206442 597.85074524 354.375 608.6875 C355.85380055 610.43780939 357.33297602 612.18780208 358.8125 613.9375 C382.89434832 643.46394011 398.85532812 679.75577594 398.75 718.125 C398.74918427 719.24575928 398.74918427 719.24575928 398.74835205 720.38916016 C398.70676474 732.8533769 397.72188462 744.62623281 394.375 756.6875 C394.17664551 757.42709961 393.97829102 758.16669922 393.77392578 758.92871094 C386.45601684 785.394275 371.89122511 809.74786902 354.375 830.6875 C353.90578125 831.25823242 353.4365625 831.82896484 352.953125 832.41699219 C341.00666674 846.90849566 327.6971383 860.53626199 313.375 872.6875 C312.42161743 873.50105957 312.42161743 873.50105957 311.44897461 874.33105469 C245.59628783 930.15385797 165.49349976 966.23495594 42.375 1007.6875 C42.62531982 1008.60354004 42.87563965 1009.51958008 43.13354492 1010.46337891 C59.5117686 1071.03613441 68.1967359 1134.96457437 69.375 1197.6875 C69.39691406 1198.75033203 69.41882812 1199.81316406 69.44140625 1200.90820312 C70.32307595 1250.48742898 65.91456933 1301.10345491 51.375 1348.6875 C51.11106445 1349.56019531 50.84712891 1350.43289063 50.57519531 1351.33203125 C46.51054018 1364.59922099 41.44212174 1377.21260255 35.375 1389.6875 C34.98441406 1390.49461426 34.59382813 1391.30172852 34.19140625 1392.13330078 C16.06843309 1429.14427424 -13.48513131 1461.34500609 -52.94238281 1475.52001953 C-121.23656646 1498.68101219 -194.72350376 1475.88224746 -257.0246582 1445.56347656 C-267.1857729 1440.51438129 -277.07435767 1435.02756777 -286.86621094 1429.29931641 C-289.60356812 1427.70002153 -292.35154498 1426.12037251 -295.1015625 1424.54296875 C-309.00742986 1416.51031753 -322.37855923 1407.76076377 -335.625 1398.6875 C-336.40713867 1398.1527002 -337.18927734 1397.61790039 -337.99511719 1397.06689453 C-350.18640411 1388.69321892 -361.92525539 1379.73027343 -373.625 1370.6875 C-374.31287598 1370.15705078 -375.00075195 1369.62660156 -375.70947266 1369.08007812 C-383.14440446 1363.3365504 -390.39357851 1357.412469 -397.53515625 1351.30859375 C-400.40077694 1348.86446666 -403.31905522 1346.49054266 -406.25 1344.125 C-411.01020053 1340.25170728 -415.55304784 1336.17990008 -420.0703125 1332.02734375 C-422.25197815 1330.02915152 -424.45511309 1328.06601111 -426.6875 1326.125 C-436.5443266 1317.54002199 -446.09116738 1308.62713984 -455.625 1299.6875 C-458.86756133 1301.24076967 -461.21647554 1302.93492073 -463.875 1305.375 C-464.74382813 1306.17035156 -465.61265625 1306.96570312 -466.5078125 1307.78515625 C-470.93929237 1311.89884659 -475.34650819 1316.03909408 -479.73925781 1320.1940918 C-484.27412073 1324.47142069 -488.91030051 1328.60975966 -493.625 1332.6875 C-494.19138184 1333.18137207 -494.75776367 1333.67524414 -495.34130859 1334.18408203 C-502.16865815 1340.13482355 -509.08845858 1345.92561961 -516.24389648 1351.47827148 C-519.98934657 1354.38783601 -523.6761297 1357.35731733 -527.33618164 1360.37353516 C-546.78329523 1376.3780652 -567.5176613 1390.95708007 -588.625 1404.6875 C-589.31190918 1405.13528809 -589.99881836 1405.58307617 -590.70654297 1406.04443359 C-646.35842631 1442.16229247 -706.74973274 1470.88164476 -772.625 1481.6875 C-773.38619141 1481.81882324 -774.14738281 1481.95014648 -774.93164062 1482.08544922 C-817.65726008 1489.22307028 -865.48772611 1482.50157176 -901.39306641 1457.45410156 C-948.86774379 1423.33374519 -970.96426735 1365.38871725 -980.625 1309.6875 C-994.13173794 1226.55119924 -986.62234204 1141.2645438 -966.9375 1045 C-966.75127075 1044.12435394 -966.5650415 1043.24870789 -966.37316895 1042.3465271 C-964.16084144 1032.00336998 -961.69756579 1021.81151614 -958.625 1011.6875 C-959.22658936 1011.55504883 -959.82817871 1011.42259766 -960.44799805 1011.28613281 C-971.63931191 1008.66036 -982.51887408 1005.00577788 -993.4375 1001.4375 C-995.05644669 1000.90878296 -995.05644669 1000.90878296 -996.70809937 1000.36938477 C-1030.19836472 989.39315592 -1062.64155814 976.47246781 -1094.625 961.6875 C-1095.54249023 961.26437531 -1095.54249023 961.26437531 -1096.47851562 960.83270264 C-1111.87287588 953.72537914 -1126.86283506 946.02531695 -1141.625 937.6875 C-1143.01307861 936.91164551 -1143.01307861 936.91164551 -1144.42919922 936.12011719 C-1172.69447599 920.27450514 -1200.84205356 902.20671806 -1225.15625 880.69921875 C-1227.96535459 878.21671436 -1230.87648228 875.88344322 -1233.8046875 873.54296875 C-1239.45779541 868.93408079 -1244.65899577 863.95886856 -1249.78710938 858.78613281 C-1251.24913161 857.31337477 -1252.72157488 855.85164955 -1254.1953125 854.390625 C-1259.67921315 848.91428432 -1264.802577 843.2483584 -1269.63500977 837.17944336 C-1271.68380529 834.61386173 -1273.80175775 832.11840121 -1275.9375 829.625 C-1305.77991993 793.0641295 -1322.12851352 749.31674741 -1318.4140625 702.00048828 C-1315.10698957 671.17831805 -1300.42515366 640.9774321 -1281.625 616.6875 C-1281.13660645 616.05634277 -1280.64821289 615.42518555 -1280.14501953 614.77490234 C-1267.4485076 598.51262973 -1253.36084346 583.0588903 -1237.625 569.6875 C-1236.70332031 568.88828125 -1235.78164062 568.0890625 -1234.83203125 567.265625 C-1169.0954126 510.53731904 -1086.52249697 473.51521464 -970.90234375 436.171875 C-969.73157539 435.81505142 -969.73157539 435.81505142 -968.53715515 435.45101929 C-965.24800705 434.45524676 -961.96343888 433.50204162 -958.625 432.6875 C-958.85791748 431.64770996 -959.09083496 430.60791992 -959.33081055 429.53662109 C-970.49874586 379.56017383 -979.70220578 329.69311793 -984.625 278.6875 C-984.72844727 277.63151611 -984.72844727 277.63151611 -984.83398438 276.55419922 C-988.45016258 239.23268324 -988.89264647 199.96562385 -984.625 162.6875 C-984.43164062 160.92672119 -984.43164062 160.92672119 -984.234375 159.13037109 C-977.75507825 101.63411163 -962.1843778 43.69826877 -921.625 0.6875 C-921.00367188 0.01332031 -920.38234375 -0.66085937 -919.7421875 -1.35546875 C-893.50147021 -28.8588147 -854.26535614 -41.49374055 -817.03125 -42.515625 C-721.71425192 -43.78877452 -631.05722418 7.32468863 -556.625 62.6875 C-555.08199219 63.82445312 -555.08199219 63.82445312 -553.5078125 64.984375 C-530.80468167 81.84252635 -508.78185965 99.6801598 -487.83984375 118.6875 C-485.85087498 120.48353529 -483.83936806 122.24703303 -481.8125 124 C-477.57643074 127.68391359 -473.46982747 131.50523409 -469.36791992 135.3371582 C-465.8814461 138.58020345 -462.30755459 141.66846876 -458.625 144.6875 C-458.00625 144.06089478 -458.00625 144.06089478 -457.375 143.42163086 C-454.07550763 140.08577411 -450.76752489 136.75855015 -447.4453125 133.4453125 C-446.49809326 132.50002686 -446.49809326 132.50002686 -445.53173828 131.53564453 C-443.00353381 129.08513137 -440.38982767 126.75085241 -437.69921875 124.48046875 C-435.41375889 122.50490175 -433.21072847 120.45482731 -431.00366211 118.39257812 C-425.57009316 113.31591316 -420.02921143 108.48138799 -414.2265625 103.82421875 C-411.67513271 101.72867506 -409.24173227 99.54786845 -406.8125 97.3125 C-402.43799174 93.33066413 -397.87970925 89.67007917 -393.20849609 86.04858398 C-389.39176332 83.08697456 -385.63268748 80.06778042 -381.9050293 76.99487305 C-372.41576538 69.18233228 -362.59757709 61.86950874 -352.625 54.6875 C-351.53203613 53.90028564 -351.53203613 53.90028564 -350.41699219 53.09716797 C-274.74015995 -1.22121435 -172.13763166 -61.45271549 0 0 Z " fill="#FFFFFF" transform="translate(1501.625,321.3125)"/>
<path d="M0 0 C6.04784072 0.01139969 12.09550534 0.00459592 18.14334011 -0.00688457 C49.374809 -0.05698834 80.50614634 0.63466049 111.70090103 2.14191437 C115.27433655 2.31229441 118.84830853 2.46863959 122.42236328 2.62548828 C127.54091929 2.85503464 132.65613784 3.11804317 137.77099609 3.41870117 C139.67410858 3.52625141 141.57784285 3.62311119 143.48193359 3.71166992 C146.38346549 3.84763873 149.28187215 4.01344719 152.18139648 4.18652344 C153.02680496 4.22006424 153.87221344 4.25360504 154.74324036 4.28816223 C158.76484389 4.56288401 160.69944101 4.8788786 163.96020508 7.40112305 C166.41947225 10.55063063 168.74041159 13.74977818 170.93139648 17.08886719 C171.36915909 17.7462236 171.80692169 18.40358002 172.25794983 19.08085632 C173.67995162 21.22016979 175.09311509 23.3651456 176.50561523 25.51074219 C177.49643079 27.00772236 178.48748137 28.50454699 179.47875977 30.0012207 C200.32108009 61.52156525 220.01477172 93.70829801 239.19311523 126.26074219 C239.84586426 127.36756348 240.49861328 128.47438477 241.17114258 129.61474609 C249.42557786 143.62829279 257.47230916 157.74994614 265.3659668 171.96972656 C266.60051796 174.1933703 267.83689359 176.41600194 269.07495117 178.63769531 C282.51144556 202.75378021 295.82266095 226.9971457 307.96728516 251.79467773 C309.75921088 255.44672845 311.60296851 259.04200371 313.60327148 262.58496094 C313.98725098 263.27114502 314.37123047 263.9573291 314.7668457 264.66430664 C315.47913866 265.92510576 316.20484725 267.17847839 316.94750977 268.42163086 C319.27876055 272.55463129 319.31368566 274.71879111 318.19311523 279.26074219 C317.11107797 281.93540212 315.82496787 284.48718144 314.50952148 287.05371094 C314.13870453 287.79250992 313.76788757 288.5313089 313.38583374 289.29249573 C312.18377212 291.68188559 310.97009956 294.06514591 309.75561523 296.44824219 C308.91927446 298.10261967 308.08342008 299.75724312 307.24804688 301.41210938 C302.13982934 311.51310026 296.97736889 321.58343306 291.63256836 331.56152344 C289.83389216 334.93434637 288.05298552 338.31645913 286.27124023 341.69824219 C278.84956164 355.76931178 271.32304681 369.75670309 263.42749023 383.56933594 C260.46992348 388.7487156 257.58927763 393.96838871 254.71411133 399.19384766 C248.12805239 411.14984287 241.29580843 422.92050763 234.22045898 434.59277344 C231.26573625 439.46847294 228.34641375 444.36367619 225.44702148 449.27246094 C225.04159622 449.9587709 224.63617096 450.64508087 224.21846008 451.35218811 C223.81105087 452.0418718 223.40364166 452.73155548 222.98388672 453.44213867 C215.72144217 465.73558038 208.38645811 477.96003407 200.66186523 489.97070312 C199.05868623 492.4703406 197.46868607 494.978043 195.88061523 497.48730469 C187.97760962 509.96661151 179.99455442 522.39470192 171.85327148 534.72021484 C170.73581946 536.43024511 169.63970699 538.15439034 168.56420898 539.89111328 C168.04987305 540.70789551 167.53553711 541.52467773 167.00561523 542.36621094 C166.55831055 543.09348389 166.11100586 543.82075684 165.65014648 544.57006836 C163.52555827 547.0353454 161.29323143 547.14264075 158.1374054 547.48143005 C157.40080185 547.52647171 156.6641983 547.57151337 155.90527344 547.61791992 C155.05155655 547.67151672 154.19783966 547.72511353 153.31825256 547.78033447 C152.38621506 547.83445496 151.45417755 547.88857544 150.49389648 547.94433594 C149.00574684 548.03409698 149.00574684 548.03409698 147.48753357 548.12567139 C144.16056204 548.32291276 140.83321633 548.51193104 137.50561523 548.69824219 C136.34122925 548.76355133 135.17684326 548.82886047 133.97717285 548.89614868 C50.18758985 553.52950116 -33.78711181 553.63490786 -134.55834961 548.46337891 C-137.74832848 548.22391166 -137.74832848 548.22391166 -140.71557617 548.29638672 C-144.30328306 548.2527733 -146.76803848 548.12744824 -149.58081055 545.78076172 C-151.53444319 543.37996044 -153.15533286 540.87999032 -154.80688477 538.26074219 C-155.62627423 537.03642213 -156.44963837 535.81475648 -157.27612305 534.59521484 C-160.18464878 530.28309719 -163.02855691 525.93014192 -165.86938477 521.57324219 C-166.90309574 519.99331451 -167.93695113 518.41348131 -168.97094727 516.83374023 C-176.12383242 505.89330084 -183.21986933 494.91857106 -190.17651367 483.85205078 C-191.88477514 481.13694337 -193.60165041 478.42739146 -195.31860352 475.71777344 C-205.43439827 459.69917869 -215.11369915 443.43152226 -224.7210083 427.1050415 C-225.73707789 425.3793052 -226.75506516 423.65469837 -227.77319336 421.93017578 C-237.06106333 406.19218922 -246.01657014 390.28160775 -254.80688477 374.26074219 C-255.37294434 373.22916992 -255.93900391 372.19759766 -256.5222168 371.13476562 C-263.77172317 357.89542643 -270.8180763 344.55831512 -277.75219727 331.15136719 C-280.03131787 326.74648737 -282.3366052 322.35662053 -284.66162109 317.97583008 C-288.96285839 309.86460251 -293.16505926 301.70450176 -297.30688477 293.51074219 C-298.08237671 291.99178345 -298.08237671 291.99178345 -298.87353516 290.44213867 C-305.43003504 277.38925018 -305.43003504 277.38925018 -304.16088867 273.05419922 C-303.02059911 270.35774978 -301.72873395 267.7912217 -300.36938477 265.19824219 C-299.87365967 264.21090088 -299.37793457 263.22355957 -298.8671875 262.20629883 C-297.77906807 260.04291243 -296.68169956 257.88415988 -295.57641602 255.72949219 C-293.7350465 252.11992016 -291.93752677 248.49119989 -290.15063477 244.85449219 C-284.06203223 232.49157421 -277.82592013 220.23278961 -271.15258789 208.17236328 C-267.61476875 201.77698352 -264.22026849 195.31827975 -260.86938477 188.82324219 C-255.35838245 178.18291321 -249.52889248 167.74693284 -243.57250977 157.35058594 C-241.71339777 154.09713994 -239.86858692 150.83586683 -238.02563477 147.57324219 C-229.21103145 132.00435061 -220.06438587 116.66676296 -210.72436523 101.40820312 C-208.48059024 97.72514389 -206.26986382 94.0233389 -204.06542969 90.31665039 C-197.7289949 79.66463601 -191.12331241 69.19588507 -184.4206543 58.77099609 C-183.00277678 56.56545651 -181.5896123 54.35699845 -180.17797852 52.14746094 C-174.45105873 43.21131764 -168.59824502 34.35624163 -162.73443604 25.50952148 C-161.83035514 24.14432497 -160.92778645 22.77812573 -160.02679443 21.41088867 C-158.75105121 19.4762412 -157.46920033 17.54577872 -156.18579102 15.61621094 C-155.6129261 14.74382027 -155.6129261 14.74382027 -155.02848816 13.85380554 C-149.56699897 5.68308139 -149.56699897 5.68308139 -145.99217224 4.82530212 C-143.6343455 4.53689644 -141.3009769 4.39255406 -138.92797852 4.28417969 C-138.01137955 4.22799469 -137.09478058 4.17180969 -136.15040588 4.11392212 C-133.1824469 3.93708848 -130.21377003 3.78648475 -127.24438477 3.63574219 C-125.42983613 3.52796329 -123.61538107 3.41859694 -121.80102539 3.30761719 C-115.57143915 2.94100822 -109.33910635 2.64949488 -103.10522842 2.36642456 C-100.58972998 2.25075698 -98.07445904 2.13070562 -95.55917358 2.01049805 C-63.69846519 0.50269138 -31.89479982 -0.06059461 0 0 Z " fill="#000000" transform="translate(1034.806884765625,765.7392578125)"/>
<path d="M0 0 C0.42744507 1.29804565 0.42744507 1.29804565 0.86352539 2.62231445 C18.64080423 56.50980083 37.66959245 109.81108364 60 162 C60.433125 163.01420013 60.433125 163.01420013 60.875 164.04888916 C62.84511376 168.66151186 64.82422653 173.27017611 66.8125 177.875 C67.07771454 178.48957062 67.34292908 179.10414124 67.61618042 179.73733521 C70.34463565 186.04785411 73.12840701 192.32308339 76.06640625 198.5390625 C76.54166748 199.5511377 77.01692871 200.56321289 77.5065918 201.60595703 C78.3882415 203.4705557 79.28326527 205.32891824 80.19458008 207.17919922 C80.58154053 207.99662598 80.96850098 208.81405273 81.3671875 209.65625 C81.70862793 210.35556641 82.05006836 211.05488281 82.40185547 211.77539062 C83.77908884 216.8975745 81.55320054 221.43099707 79.40234375 226.03125 C78.85666748 227.21364258 78.31099121 228.39603516 77.7487793 229.61425781 C77.45482269 230.24416626 77.16086609 230.87407471 76.85800171 231.52307129 C75.24365619 234.99014361 73.66047074 238.47135656 72.078125 241.953125 C71.74350754 242.68924011 71.40889008 243.42535522 71.06413269 244.18377686 C42.99296793 306.17972564 20.43334026 370.47423309 -1 435 C-13.0980114 432.18834227 -24.85253443 428.63637364 -36.625 424.6875 C-37.52719269 424.38620178 -38.42938538 424.08490356 -39.35891724 423.7744751 C-68.20467292 414.10880552 -96.39853373 402.79114035 -124 390 C-124.99483398 389.54173828 -125.98966797 389.08347656 -127.01464844 388.61132812 C-168.7009006 369.33365822 -209.43616691 345.44110127 -244 315 C-244.77472656 314.33613281 -245.54945313 313.67226562 -246.34765625 312.98828125 C-260.0966854 300.98441189 -273.49553604 287.97932156 -284 273 C-284.3933252 272.44038574 -284.78665039 271.88077148 -285.19189453 271.30419922 C-298.65225476 251.86391753 -310.01331624 228.83221779 -306.50390625 204.5703125 C-301.31334721 178.23628979 -286.41101404 156.90114814 -268 138 C-267.38576172 137.36529785 -266.77152344 136.7305957 -266.13867188 136.07666016 C-258.14584525 127.84748651 -250.08888611 120.02430885 -241 113 C-239.70957725 111.96001889 -238.42063236 110.91820256 -237.1328125 109.875 C-215.43277701 92.45412345 -191.41954257 78.24073279 -167 65 C-166.17097168 64.54786133 -165.34194336 64.09572266 -164.48779297 63.62988281 C-47.25737213 0 -47.25737213 0 0 0 Z " fill="#000000" transform="translate(564,826)"/>
<path d="M0 0 C0.58974609 0.11782333 1.17949219 0.23564667 1.78710938 0.35704041 C47.6779168 9.50962057 93.64535751 17.6464106 140.0625 23.6875 C141.16810272 23.83362732 142.27370544 23.97975464 143.41281128 24.13031006 C156.54289657 25.84963077 169.64402836 27.1843488 182.85622597 28.02548409 C185.0305772 28.16741487 187.20391089 28.31982395 189.37724304 28.47654724 C190.44676067 28.55367054 190.44676067 28.55367054 191.53788471 28.63235188 C192.97091466 28.7361571 194.40390289 28.84053984 195.83684826 28.9455061 C199.32996556 29.19565698 202.81910487 29.41248032 206.31838989 29.55477905 C229.27034338 30.50183283 229.27034338 30.50183283 235.21435547 36.69140625 C237.95658041 40.22021774 240.05679371 43.97846875 241.99868774 47.99468994 C243.28917864 50.57913287 244.90631014 52.7978825 246.671875 55.078125 C247.43769897 56.11960693 247.43769897 56.11960693 248.21899414 57.18212891 C248.72422607 57.86452637 249.22945801 58.54692383 249.75 59.25 C250.32161865 60.0239209 250.8932373 60.7978418 251.48217773 61.59521484 C257.93235357 70.30038676 264.50887231 78.90905399 271.09667969 87.51025391 C272.8854166 89.85011268 274.66687017 92.19528037 276.4453125 94.54296875 C282.25478579 102.20095015 288.17097549 109.74967083 294.26196289 117.18603516 C297.77448932 121.47634669 301.21989198 125.8115947 304.625 130.1875 C309.07246027 135.89185122 313.69362504 141.42614 318.390625 146.92578125 C320.76269035 149.70733088 323.07492712 152.53348661 325.375 155.375 C333.29753568 165.10069344 341.60162521 174.51397546 350.0234375 183.80859375 C351.86956561 185.85538796 353.68993284 187.92131557 355.5 190 C359.61082593 194.71703068 363.80752718 199.35560225 368 204 C369.68778298 205.87474528 371.37529269 207.74973662 373.0625 209.625 C373.81660156 210.46289062 374.57070313 211.30078125 375.34765625 212.1640625 C376.16556641 213.07285156 376.16556641 213.07285156 377 214 C375.60875778 217.17462913 374.00726756 219.18902753 371.47265625 221.5390625 C370.76834473 222.19704834 370.0640332 222.85503418 369.33837891 223.53295898 C368.58733887 224.22333252 367.83629883 224.91370605 367.0625 225.625 C366.29341309 226.33922119 365.52432617 227.05344238 364.73193359 227.78930664 C362.49304289 229.86512576 360.24702097 231.93299044 358 234 C356.93843475 234.98528146 355.87718406 235.97090206 354.81640625 236.95703125 C349.68970685 241.68192837 344.41980376 246.16077431 338.9921875 250.53515625 C336.1942772 252.83996226 333.46794685 255.20528053 330.74853516 257.60107422 C322.76404721 264.62833921 314.46580933 271.13081988 305.96337891 277.51708984 C304.18721444 278.85859978 302.42405873 280.21440481 300.66796875 281.58203125 C238.07360714 330.31902475 148.61283234 388.56549181 65.24609375 379.5390625 C49.66392848 377.53903458 36.22967271 373.20143471 24 363 C23.30777344 362.46890625 22.61554687 361.9378125 21.90234375 361.390625 C-10.90266766 335.04226593 -19.17094524 283.1599819 -24 244 C-24.12004395 243.04432129 -24.24008789 242.08864258 -24.36376953 241.10400391 C-28.835957 203.26703183 -26.98390265 163.81108773 -23 126 C-22.9175 125.21183899 -22.835 124.42367798 -22.75 123.6116333 C-18.70737481 85.4583863 -11.4302764 47.8517459 -2.78515625 10.49609375 C-2.61885208 9.77642426 -2.45254791 9.05675476 -2.28120422 8.3152771 C-1.62074171 5.49405385 -0.91695029 2.75085086 0 0 Z " fill="#000000" transform="translate(615,1351)"/>
<path d="M0 0 C12.18008579 44.98327137 19.40440391 91.56403099 23 138 C23.0942627 139.12188721 23.18852539 140.24377441 23.28564453 141.3996582 C24.3169146 155.22402713 24.24371976 169.0816959 24.25 182.9375 C24.25066278 183.93713209 24.25066278 183.93713209 24.25133896 184.95695877 C24.25856907 205.77823536 23.94144852 226.35012105 21 247 C20.82307617 248.24571777 20.64615234 249.49143555 20.46386719 250.77490234 C14.58555024 290.59821534 3.97494519 333.41398391 -25 363 C-25.66128906 363.69738281 -26.32257813 364.39476562 -27.00390625 365.11328125 C-39.67878524 377.49954819 -58.57937399 383.34423175 -76 384 C-76.85980469 384.03996094 -77.71960937 384.07992188 -78.60546875 384.12109375 C-159.58250288 386.01986558 -241.86608951 330.18276853 -302 282 C-303.33611328 280.93845703 -303.33611328 280.93845703 -304.69921875 279.85546875 C-307.14020982 277.91263913 -309.5723323 275.95944654 -312 274 C-312.84691406 273.31679687 -313.69382812 272.63359375 -314.56640625 271.9296875 C-325.16133063 263.32420307 -335.50352225 254.44825939 -345.5625 245.22265625 C-347.64272725 243.32578236 -349.74556898 241.46607057 -351.875 239.625 C-355.50121973 236.46329602 -359.07231308 233.24384481 -362.625 230 C-363.16366699 229.51354004 -363.70233398 229.02708008 -364.25732422 228.52587891 C-368.1648816 224.93906437 -371.62733397 221.09138131 -375 217 C-373.71416016 215.62328125 -373.71416016 215.62328125 -372.40234375 214.21875 C-366.50476337 207.89393381 -360.62388997 201.57107143 -355 195 C-354.1003965 193.95430999 -353.20064267 192.90874931 -352.30078125 191.86328125 C-342.40153576 180.34964268 -332.57944695 168.78179568 -323 157 C-322.00295295 155.78486998 -321.00553394 154.5700451 -320.0078125 153.35546875 C-313.77142534 145.74574952 -307.68065292 138.04575077 -301.73095703 130.2097168 C-298.40687439 125.83215719 -295.039768 121.49456283 -291.625 117.1875 C-280.54855774 103.16849516 -270.01015733 88.73753541 -259.59716797 74.22216797 C-257.97743101 71.96859937 -256.35116541 69.71989255 -254.72265625 67.47265625 C-248.67708022 59.12805835 -242.67639992 50.75610585 -236.78100586 42.30444336 C-236.31315674 41.63678955 -235.84530762 40.96913574 -235.36328125 40.28125 C-234.74900269 39.40049805 -234.74900269 39.40049805 -234.12231445 38.50195312 C-231.59572747 35.12071251 -231.59572747 35.12071251 -228.9546051 34.58554077 C-228.10663864 34.50752228 -227.25867218 34.42950378 -226.38500977 34.34912109 C-225.41206467 34.25463684 -224.43911957 34.16015259 -223.43669128 34.06280518 C-221.83027519 33.91956818 -221.83027519 33.91956818 -220.19140625 33.7734375 C-217.86113298 33.54867533 -215.53089368 33.32356077 -213.20068359 33.09814453 C-211.95857117 32.98102112 -210.71645874 32.86389771 -209.43670654 32.7432251 C-202.81288113 32.11366167 -196.19302757 31.44560993 -189.57421875 30.765625 C-188.89005638 30.69536732 -188.20589401 30.62510963 -187.50099945 30.55272293 C-131.90890875 24.81316106 -76.8619397 15.46983328 -22.125 4.3203125 C-21.11576477 4.11542709 -20.10652954 3.91054169 -19.06671143 3.69944763 C-14.84976632 2.83358228 -10.65983932 1.93515376 -6.4921875 0.85498047 C-3 0 -3 0 0 0 Z " fill="#000000" transform="translate(1472,1348)"/>
<path d="M0 0 C1.64978668 1.40574427 3.30738729 2.80182968 4.96630859 4.19677734 C12.18901895 10.29584106 19.16858739 16.6054741 26.01831055 23.12158203 C30.11085761 27.00863457 34.29683779 30.7320975 38.61083984 34.37255859 C37.0848057 37.58886001 35.51283213 39.66025158 32.92333984 42.12255859 C29.61161676 45.35104267 26.5301083 48.67900075 23.51708984 52.18505859 C21.30138336 54.72767259 19.01985393 57.20366058 16.73583984 59.68505859 C12.61177308 64.20159697 8.73147119 68.86388875 4.89208984 73.62255859 C2.54365016 76.45355438 0.10174082 79.16639457 -2.38916016 81.87255859 C-6.44899661 86.28896004 -10.28239837 90.83419381 -14.04931641 95.50146484 C-16.57649762 98.60243011 -19.16545794 101.64417959 -21.76416016 104.68505859 C-26.0107323 109.67080779 -30.09871605 114.76032027 -34.12084961 119.92822266 C-37.67004912 124.48153392 -41.29777856 128.96546887 -44.95166016 133.43505859 C-50.05259015 139.6885776 -55.03447829 146.01217889 -59.91650391 152.43896484 C-61.64074528 154.7028892 -63.3743361 156.95952305 -65.10791016 159.21630859 C-74.34343594 171.25934487 -83.33122215 183.45382945 -92.12988281 195.81884766 C-93.30931325 197.47581306 -94.49052859 199.13150951 -95.67358398 200.78588867 C-96.7830553 202.33744334 -97.88863532 203.89179118 -98.98950195 205.44946289 C-99.49263916 206.15240479 -99.99577637 206.85534668 -100.51416016 207.57958984 C-100.94986328 208.19294189 -101.38556641 208.80629395 -101.83447266 209.43823242 C-102.34751953 210.07656006 -102.86056641 210.7148877 -103.38916016 211.37255859 C-104.04770996 212.24372314 -104.70625977 213.1148877 -105.38476562 214.01245117 C-109.7767182 217.46255726 -113.8775554 217.48955875 -119.33447266 217.92724609 C-120.43124832 218.03411743 -121.52802399 218.14098877 -122.65803528 218.25109863 C-125.03131171 218.48087468 -127.40553031 218.7010769 -129.78048706 218.91278076 C-136.1588891 219.48469682 -142.52930459 220.13593568 -148.90087891 220.77880859 C-150.20313919 220.90855072 -151.50539948 221.03829285 -152.84712219 221.17196655 C-214.13672156 227.35201803 -275.20584682 238.36878079 -335.38916016 251.37255859 C-350.74401384 192.1014292 -361.1593858 130.69730662 -362.38916016 69.37255859 C-362.41107422 68.30005859 -362.43298828 67.22755859 -362.45556641 66.12255859 C-363.30861048 16.07730628 -359.63502268 -37.02982575 -337.38916016 -82.62744141 C-336.88513672 -83.66513672 -336.38111328 -84.70283203 -335.86181641 -85.77197266 C-325.6853034 -105.47663356 -310.79871614 -119.97624429 -290.01416016 -127.50244141 C-202.16124236 -154.54111144 -90.9649783 -73.20008706 0 0 Z " fill="#000000" transform="translate(951.38916015625,484.62744140625)"/>
<path d="M0 0 C38.09160831 32.33439422 47.11315844 89.39632879 51.05859375 136.44921875 C52.1702739 150.15647681 52.35498936 163.81620185 52.3125 177.5625 C52.30976578 179.41594025 52.30976578 179.41594025 52.30697632 181.30682373 C52.2526992 203.32211965 51.36193984 225.11178 49 247 C48.91514343 247.78989319 48.83028687 248.57978638 48.74285889 249.39361572 C44.39116297 289.41163759 37.00708148 328.78890545 28 368 C24.51314915 368.85851321 21.98849517 369.0385129 18.48754883 368.26245117 C17.61167114 368.07403656 16.73579346 367.88562195 15.83337402 367.6914978 C14.40958435 367.37047592 14.40958435 367.37047592 12.95703125 367.04296875 C10.86050453 366.58991923 8.76390251 366.1372181 6.66723633 365.68481445 C4.99729111 365.31919907 4.99729111 365.31919907 3.29360962 364.94619751 C-36.56457215 356.25922509 -76.7292699 349.40209008 -117.125 343.75 C-118.30839966 343.58239166 -119.49179932 343.41478333 -120.71105957 343.24209595 C-134.35723701 341.3236774 -147.96488443 339.77343249 -161.70703125 338.734375 C-164.2857405 338.52232273 -166.86435557 338.30912164 -169.44287109 338.09472656 C-174.31858256 337.68979979 -179.18699333 337.38283161 -184.07275391 337.13183594 C-200.766057 335.96143566 -200.766057 335.96143566 -205.77514648 330.52026367 C-208.29009168 327.18274155 -210.24445553 323.6405516 -212.06112671 319.88446045 C-213.25943599 317.4792728 -214.74202642 315.38241213 -216.35546875 313.23828125 C-216.82412354 312.58585449 -217.29277832 311.93342773 -217.77563477 311.26123047 C-218.47450806 310.29660889 -218.47450806 310.29660889 -219.1875 309.3125 C-219.71593506 308.5817627 -220.24437012 307.85102539 -220.78881836 307.09814453 C-226.44962224 299.31402741 -232.29920106 291.67501811 -238.15234375 284.03515625 C-241.50933513 279.65161264 -244.82491848 275.23894998 -248.125 270.8125 C-258.2950467 257.20760538 -268.80471837 243.88057157 -279.57177734 230.74414062 C-280.86004648 229.17091076 -282.14322725 227.59351752 -283.42578125 226.015625 C-287.85706416 220.56900373 -292.36163775 215.19040104 -296.91015625 209.84179688 C-299.8600541 206.36719731 -302.7568272 202.85524306 -305.625 199.3125 C-309.24834495 194.86096192 -313.01963872 190.57617545 -316.8828125 186.33203125 C-318.78051169 184.24176111 -320.64733415 182.13013885 -322.5 180 C-325.09901752 177.01771722 -327.72814662 174.06493057 -330.375 171.125 C-331.12652344 170.2896875 -331.87804688 169.454375 -332.65234375 168.59375 C-334.26164825 166.81574968 -335.87928674 165.04526744 -337.50390625 163.28125 C-338.70853516 161.96640625 -338.70853516 161.96640625 -339.9375 160.625 C-340.66839844 159.83351563 -341.39929687 159.04203125 -342.15234375 158.2265625 C-343.84283048 156.1894009 -344.8731978 154.37054551 -346 152 C-341.70164872 147.98459341 -337.40175352 143.97085068 -333.10009766 139.95898438 C-331.74787587 138.69762334 -330.39596326 137.43593073 -329.04443359 136.17382812 C-322.44803692 130.01513147 -315.8556745 123.87101748 -309 118 C-307.93082507 117.07701345 -306.86183204 116.15381618 -305.79296875 115.23046875 C-298.61693539 109.04246147 -291.37538927 102.95014513 -284 97 C-283.44763672 96.55188965 -282.89527344 96.1037793 -282.32617188 95.64208984 C-220.50214204 45.50761998 -85.56832843 -57.49092852 0 0 Z " fill="#000000" transform="translate(1441,367)"/>
<path d="M0 0 C11.94900932 2.61777003 23.51322058 6.57448126 35.125 10.375 C36.20969574 10.72937134 37.29439148 11.08374268 38.41195679 11.44885254 C57.51836529 17.70751224 76.38213384 24.40994897 95 32 C96.81951172 32.7412915 96.81951172 32.7412915 98.67578125 33.49755859 C116.79535601 40.9500435 134.47455914 49.25824597 152 58 C153.63412842 58.81404297 153.63412842 58.81404297 155.30126953 59.64453125 C191.20526713 77.64305909 224.82947456 99.47059138 255 126 C255.51900879 126.45439453 256.03801758 126.90878906 256.57275391 127.37695312 C261.82979576 131.99621087 266.83502419 136.66251106 271.3359375 142.02734375 C273.1016037 144.1204457 274.95370012 146.11438579 276.8125 148.125 C294.64468002 168.32793228 307.34363175 192.27797455 306.17919922 219.73193359 C304.45857375 241.50933228 291.87834324 261.79623027 278 278 C277.05018063 279.13361162 276.1010079 280.26776521 275.15234375 281.40234375 C267.07084294 291.0105797 258.57523267 299.86105223 249 308 C248.06671875 308.81082031 247.1334375 309.62164063 246.171875 310.45703125 C217.14304908 335.54858257 183.89484576 355.25525092 150 373 C149.08057617 373.48500977 148.16115234 373.97001953 147.21386719 374.46972656 C41.37218982 430 41.37218982 430 3 430 C2.69932617 429.08750488 2.39865234 428.17500977 2.08886719 427.23486328 C-20.38682482 359.10248077 -46.36478436 292.54621228 -77.01611328 227.65039062 C-77.51353027 226.59271484 -78.01094727 225.53503906 -78.5234375 224.4453125 C-78.95575684 223.53281738 -79.38807617 222.62032227 -79.83349609 221.68017578 C-80.21844238 220.79571777 -80.60338867 219.91125977 -81 219 C-81.43763672 218.04536865 -81.87527344 217.0907373 -82.32617188 216.10717773 C-83.21652951 212.00153222 -82.01767052 209.4731803 -80.2578125 205.83984375 C-79.78634796 204.80567322 -79.78634796 204.80567322 -79.30535889 203.75061035 C-78.62157618 202.25647849 -77.92891767 200.76638375 -77.22845459 199.27999878 C-76.10594945 196.89705803 -75.00723614 194.50441484 -73.91455078 192.10766602 C-72.38207597 188.74732127 -70.84258054 185.3903335 -69.29882812 182.03515625 C-65.71526383 174.21701723 -62.28475546 166.33267201 -58.875 158.4375 C-58.54374115 157.67119263 -58.2124823 156.90488525 -57.8711853 156.11535645 C-35.87982892 105.15848815 -16.69543537 52.92116864 0 0 Z " fill="#000000" transform="translate(1520,827)"/>
<path d="M0 0 C5.09891236 4.82574287 9.54760432 10.00852716 13.75512695 15.6315918 C14.46926758 16.56874023 15.1834082 17.50588867 15.91918945 18.47143555 C34.97874243 44.63622823 44.91346097 74.9827295 44.99536133 107.25488281 C45.00497267 109.53253051 45.03601994 111.80923667 45.06762695 114.08666992 C45.35102076 153.30380872 28.33377358 189.49504936 1.75512695 217.6315918 C0.71291992 218.75307617 0.71291992 218.75307617 -0.3503418 219.8972168 C-25.86902839 246.48499227 -64.36474735 262.87386099 -101.07299805 263.8347168 C-145.88666838 264.38521904 -184.88745861 250.21582973 -217.50268555 219.30737305 C-244.42768837 193.03440021 -261.49370138 155.32577176 -262.5456543 117.6237793 C-262.56508199 115.2514598 -262.56863711 112.87896411 -262.55737305 110.5065918 C-262.5517334 109.24468018 -262.54609375 107.98276855 -262.5402832 106.68261719 C-262.00069952 64.70995177 -244.46249001 27.19157523 -214.83862305 -2.19433594 C-154.50658554 -60.46899804 -59.88685337 -55.38512792 0 0 Z " fill="#FFFFFF" transform="translate(1150.244873046875,930.368408203125)"/>
<path d="M0 0 C2.88013062 2.88013062 4.02915866 6.45311765 5.5703125 10.16015625 C5.92339981 10.99969849 6.27648712 11.83924072 6.64027405 12.70422363 C7.80802284 15.48777931 8.96724336 18.27477456 10.125 21.0625 C10.52538483 22.02348602 10.92576965 22.98447205 11.33828735 23.97457886 C25.28831305 57.48296791 38.28772651 91.30764531 50.16760254 125.60662842 C50.73892395 127.24933457 51.31494066 128.89041299 51.89489746 130.53009033 C52.77077289 133.00754451 53.63287754 135.48941535 54.4921875 137.97265625 C54.76032257 138.72236191 55.02845764 139.47206757 55.30471802 140.24449158 C56.57030073 143.9513605 57.18184787 146.26477034 56 150 C13.24372469 159.29611546 -29.66699711 166.98437841 -73 173.0625 C-74.08496765 173.21488129 -75.1699353 173.36726257 -76.28778076 173.52426147 C-79.33699511 173.9498004 -82.38697062 174.36915894 -85.4375 174.78515625 C-86.33699371 174.90966156 -87.23648743 175.03416687 -88.16323853 175.16244507 C-92.13678312 175.69501273 -95.97958163 176.16046588 -100 176 C-98.70496422 172.52599078 -97.19021286 169.50594574 -95.19140625 166.38671875 C-94.61865967 165.48445557 -94.04591309 164.58219238 -93.45581055 163.65258789 C-92.83101807 162.67410889 -92.20622559 161.69562988 -91.5625 160.6875 C-85.27546133 150.73902636 -79.18039466 140.69050528 -73.1875 130.5625 C-72.57160507 129.52163742 -72.57160507 129.52163742 -71.94326782 128.45974731 C-69.9699632 125.12289306 -67.99915806 121.78457606 -66.03076172 118.44482422 C-64.38943729 115.66061075 -62.74498499 112.8783181 -61.09765625 110.09765625 C-58.71689799 106.07372487 -56.35345024 102.03995898 -54 98 C-53.4652002 97.0821875 -52.93040039 96.164375 -52.37939453 95.21875 C-34.15578244 63.89551212 -16.79119958 32.11220196 0 0 Z " fill="#000000" transform="translate(1394,1127)"/>
<path d="M0 0 C2.39028059 3.00311631 4.16580794 6.06678118 5.8984375 9.48828125 C6.45354004 10.57536377 7.00864258 11.66244629 7.58056641 12.7824707 C8.46881104 14.52983521 8.46881104 14.52983521 9.375 16.3125 C14.44994694 26.22251333 19.71933974 35.98742177 25.25024414 45.65258789 C28.35721831 51.08450232 31.3964675 56.54368442 34.36181641 62.05419922 C40.87919767 74.16542843 47.83009933 85.99602257 54.89285278 97.79563904 C57.29574694 101.81229242 59.67797823 105.84048816 62.05078125 109.875 C71.93550357 126.67254379 82.16285697 143.22813695 92.60546875 159.68359375 C93.1684668 160.57175781 93.73146484 161.45992187 94.31152344 162.375 C95.37089463 164.04454354 96.43262823 165.71259115 97.49707031 167.37890625 C98.19268066 168.47332031 98.19268066 168.47332031 98.90234375 169.58984375 C99.30960693 170.22784912 99.71687012 170.86585449 100.13647461 171.52319336 C101 173 101 173 101 174 C86.42529594 173.50071799 72.11294517 171.56157264 57.6875 169.5 C56.454552 169.32559387 55.221604 169.15118774 53.95129395 168.97149658 C17.78511725 163.84064888 -18.32970444 157.92199148 -54 150 C-53.42904074 143.89086674 -52.07745453 138.51135618 -50.11328125 132.7109375 C-49.82012527 131.82724487 -49.5269693 130.94355225 -49.22492981 130.03308105 C-48.26288439 127.14403536 -47.28865636 124.2593061 -46.3125 121.375 C-45.97675964 120.3764801 -45.64101929 119.37796021 -45.29510498 118.34918213 C-35.97485529 90.64422035 -25.78421572 63.31571303 -15.0625 36.125 C-14.70923645 35.22811462 -14.3559729 34.33122925 -13.99200439 33.40716553 C-9.55562418 22.16620939 -4.93028511 11.03357485 0 0 Z " fill="#000000" transform="translate(690,1130)"/>
<path d="M0 0 C1.41919739 0.04445755 1.41919739 0.04445755 2.86706543 0.08981323 C31.95649865 0.98027227 61.03013901 1.15775075 90.13183594 1.13037109 C96.29071001 1.12464894 102.44954106 1.12807261 108.6084137 1.13382339 C132.17483557 1.15236175 155.71645532 1.12502797 179.26757812 0.21435547 C186.5138838 -0.05529386 193.74970166 -0.04496346 201 0 C197.00386959 6.1393111 192.79008994 12.00204261 188.25 17.75 C187.00616831 19.33566921 185.76268038 20.92160812 184.51953125 22.5078125 C183.91705566 23.27512695 183.31458008 24.04244141 182.69384766 24.83300781 C180.41731795 27.74544334 178.17769077 30.68452047 175.9375 33.625 C171.6887311 39.16232996 167.30680193 44.58157419 162.88867188 49.984375 C159.34677392 54.32122302 155.87237586 58.70311951 152.4375 63.125 C148.22417453 68.53587778 143.83557891 73.76926533 139.34619141 78.95263672 C136.27200186 82.50363116 133.26643342 86.09739711 130.3125 89.75 C126.71361611 94.18189861 122.96329404 98.44230343 119.12109375 102.6640625 C116.63481995 105.40216883 114.2027388 108.18409208 111.7734375 110.97265625 C108.53952142 114.66957793 105.267917 118.33314248 102 122 C89.78561744 112.22849395 79.96203336 99.478789 69.83105469 87.63208008 C66.56422511 83.81454192 63.27778881 80.01492625 59.97802734 76.22583008 C54.19373668 69.58093328 48.53920017 62.85165991 43 56 C41.5843237 54.27002243 40.1676292 52.54087763 38.75 50.8125 C37.16643505 48.8751893 35.58312697 46.93766862 34 45 C33.5045166 44.39494629 33.0090332 43.78989258 32.49853516 43.16650391 C23.00304604 31.56668722 13.77542356 19.81358536 4.875 7.75 C4.3888623 7.09314209 3.90272461 6.43628418 3.40185547 5.75952148 C0 1.11911443 0 1.11911443 0 0 Z " fill="#000000" transform="translate(943,1390)"/>
<path d="M0 0 C1.15039081 1.15039081 2.30044707 2.30111734 3.44921875 3.453125 C4.50916662 4.51040298 5.57454233 5.56225995 6.64453125 6.609375 C10.99476235 10.89086656 15.03317674 15.36325782 19 20 C19.88403537 21.03131791 20.76815649 22.06256231 21.65234375 23.09375 C23.16215904 24.85499017 24.67137115 26.61673203 26.17895508 28.37988281 C28.83006852 31.47849147 31.49002187 34.56856389 34.171875 37.640625 C41.69862987 46.26402368 49.04039017 55.02178084 56.27685547 63.89013672 C57.95256135 65.94191488 59.63394333 67.98891757 61.31640625 70.03515625 C68.00158035 78.18778316 74.47665324 86.4780204 80.8515625 94.875 C84.28116424 99.38574084 87.78202639 103.83869646 91.31103516 108.27197266 C94.34050319 112.09574523 97.18925557 116.01476593 100 120 C97.07753756 120.85589944 94.64438714 121.07626319 91.609375 120.9140625 C90.69824951 120.87079834 89.78712402 120.82753418 88.84838867 120.78295898 C87.31468628 120.70476929 87.31468628 120.70476929 85.75 120.625 C23.8657623 117.90358203 -38.11804183 118.66014724 -100 121 C-96.50451022 115.6450631 -92.93107791 110.43250702 -88.9375 105.4375 C-88.24140625 104.55868164 -88.24140625 104.55868164 -87.53125 103.66210938 C-83.34572823 98.39412507 -79.09553632 93.1783869 -74.83984375 87.96704102 C-71.31601756 83.64523937 -67.85899316 79.27804874 -64.4375 74.875 C-60.22406621 69.46420141 -55.83558429 64.23074089 -51.34619141 59.04736328 C-48.27200186 55.49636884 -45.26643342 51.90260289 -42.3125 48.25 C-38.71244833 43.81666331 -34.96096513 39.55486654 -31.1171875 35.33203125 C-29.21948831 33.24176111 -27.35266585 31.13013885 -25.5 29 C-22.86310364 25.97245233 -20.18983431 22.98062721 -17.5 20 C-11.56469355 13.41977061 -5.75527429 6.73788209 0 0 Z " fill="#000000" transform="translate(1042,573)"/>
<path d="M0 0 C51.51502939 6.83860345 103.56693691 14.17510946 154 27 C151.61317303 36.34934531 148.62612127 45.48166239 145.5625 54.625 C145.29956146 55.41099579 145.03662292 56.19699158 144.76571655 57.00680542 C134.49820617 87.64608518 122.93750415 117.71485762 110.91772461 147.70635986 C110.07419249 149.81457305 109.23424841 151.92415722 108.39648438 154.03466797 C107.12557725 157.23434805 105.84645912 160.43054032 104.5625 163.625 C104.04200073 164.93827271 104.04200073 164.93827271 103.51098633 166.27807617 C101.23197278 171.88401361 101.23197278 171.88401361 99 173 C98.51140503 172.04468384 98.51140503 172.04468384 98.01293945 171.07006836 C91.51268724 158.39043806 84.87503114 145.82899301 77.80566406 133.45654297 C74.13899341 127.03601547 70.57475186 120.56861166 67.0625 114.0625 C61.24438501 103.32416272 55.11361578 92.78274259 48.91552734 82.26025391 C46.89927515 78.82856492 44.89565511 75.3897388 42.89453125 71.94921875 C32.37650225 53.88253732 21.6277892 35.97113171 10.40234375 18.33203125 C9.84651611 17.45820801 9.29068848 16.58438477 8.71801758 15.68408203 C7.69239231 14.07671897 6.66260262 12.47200169 5.62768555 10.87060547 C5.17562744 10.16436035 4.72356934 9.45811523 4.2578125 8.73046875 C3.8673877 8.12614014 3.47696289 7.52181152 3.07470703 6.89916992 C1.81542673 4.67383111 0.90499842 2.38854757 0 0 Z " fill="#000000" transform="translate(1294,781)"/>
<path d="M0 0 C-0.35078613 0.54599854 -0.70157227 1.09199707 -1.06298828 1.65454102 C-10.25302539 15.97843591 -19.21106322 30.42695763 -28 45 C-28.51272461 45.84771973 -29.02544922 46.69543945 -29.55371094 47.56884766 C-42.14217389 68.38444856 -54.34883313 89.40922028 -66.15527344 110.67822266 C-67.74724632 113.54486944 -69.34340747 116.40913894 -70.94099426 119.2726593 C-72.63122312 122.30461436 -74.31645306 125.33933053 -76 128.375 C-76.4983989 129.27301834 -76.4983989 129.27301834 -77.00686646 130.18917847 C-80.78472571 137.00785182 -84.47627699 143.86088447 -88.01953125 150.8046875 C-88.3417868 151.43478729 -88.66404236 152.06488708 -88.99606323 152.71408081 C-90.53658023 155.73114106 -92.06310851 158.75365078 -93.57226562 161.78662109 C-94.11173828 162.85219238 -94.65121094 163.91776367 -95.20703125 165.015625 C-95.91049683 166.42763184 -95.91049683 166.42763184 -96.62817383 167.86816406 C-98 170 -98 170 -101 171 C-117.68315996 129.76008102 -133.42144294 88.38273444 -147.61328125 46.21484375 C-147.92714783 45.28435211 -148.2410144 44.35386047 -148.56439209 43.39517212 C-153 30.15205468 -153 30.15205468 -153 25 C-113.35545744 16.42626521 -73.62791792 9.13115126 -33.49631119 3.24890137 C-31.380651 2.93832955 -29.26530505 2.62568342 -27.1499939 2.31274414 C-23.192543 1.72847471 -19.23323752 1.15797739 -15.2734375 0.58984375 C-14.07563156 0.41323715 -12.87782562 0.23663055 -11.64372253 0.05467224 C-10.54619156 -0.10009079 -9.44866058 -0.25485382 -8.31787109 -0.41430664 C-7.35883881 -0.55228165 -6.39980652 -0.69025665 -5.41171265 -0.83241272 C-3 -1 -3 -1 0 0 Z " fill="#000000" transform="translate(790,782)"/>
</svg>
